<mxfile host="Electron" agent="Mozilla/5.0 (Windows NT 10.0; Win64; x64) AppleWebKit/537.36 (KHTML, like Gecko) draw.io/24.7.5 Chrome/126.0.6478.183 Electron/31.3.0 Safari/537.36" version="24.7.5" pages="2">
  <diagram name="Design" id="dDk4H9TwK89pCFf6_tYj">
    <mxGraphModel dx="2954" dy="1196" grid="1" gridSize="10" guides="1" tooltips="1" connect="1" arrows="1" fold="1" page="1" pageScale="1" pageWidth="827" pageHeight="1169" math="0" shadow="0">
      <root>
        <mxCell id="0" />
        <mxCell id="1" parent="0" />
        <mxCell id="Chhtmzpw9TE049w9HPY5-57" value="Wep API" style="rounded=0;whiteSpace=wrap;html=1;fillColor=#ffe6cc;strokeColor=#d79b00;fontSize=11;align=left;horizontal=1;verticalAlign=top;" vertex="1" parent="1">
          <mxGeometry x="40" y="180" width="235" height="110" as="geometry" />
        </mxCell>
        <mxCell id="Chhtmzpw9TE049w9HPY5-39" value="Hosted Service" style="rounded=0;whiteSpace=wrap;html=1;fillColor=#fff2cc;strokeColor=#d6b656;align=left;horizontal=1;verticalAlign=top;fontSize=11;" vertex="1" parent="1">
          <mxGeometry x="40" y="310" width="780" height="90" as="geometry" />
        </mxCell>
        <mxCell id="Chhtmzpw9TE049w9HPY5-11" value="" style="rounded=0;whiteSpace=wrap;html=1;fontSize=11;" vertex="1" parent="1">
          <mxGeometry x="50" y="335" width="80" height="40" as="geometry" />
        </mxCell>
        <mxCell id="Chhtmzpw9TE049w9HPY5-18" style="edgeStyle=orthogonalEdgeStyle;rounded=0;orthogonalLoop=1;jettySize=auto;html=1;fontSize=11;" edge="1" parent="1" source="Chhtmzpw9TE049w9HPY5-13" target="Chhtmzpw9TE049w9HPY5-17">
          <mxGeometry relative="1" as="geometry" />
        </mxCell>
        <mxCell id="Chhtmzpw9TE049w9HPY5-13" value="IImporter" style="rounded=0;whiteSpace=wrap;html=1;fontSize=11;" vertex="1" parent="1">
          <mxGeometry x="170" y="355" width="80" height="40" as="geometry" />
        </mxCell>
        <mxCell id="Chhtmzpw9TE049w9HPY5-12" value="" style="rounded=0;whiteSpace=wrap;html=1;fontSize=11;" vertex="1" parent="1">
          <mxGeometry x="60" y="345" width="80" height="40" as="geometry" />
        </mxCell>
        <mxCell id="Chhtmzpw9TE049w9HPY5-16" style="edgeStyle=orthogonalEdgeStyle;rounded=0;orthogonalLoop=1;jettySize=auto;html=1;entryX=0;entryY=0.5;entryDx=0;entryDy=0;fontSize=11;" edge="1" parent="1" source="Chhtmzpw9TE049w9HPY5-6" target="Chhtmzpw9TE049w9HPY5-13">
          <mxGeometry relative="1" as="geometry" />
        </mxCell>
        <mxCell id="Chhtmzpw9TE049w9HPY5-6" value="IScheduler" style="rounded=0;whiteSpace=wrap;html=1;fontSize=11;" vertex="1" parent="1">
          <mxGeometry x="70" y="355" width="80" height="40" as="geometry" />
        </mxCell>
        <mxCell id="Chhtmzpw9TE049w9HPY5-22" style="edgeStyle=orthogonalEdgeStyle;rounded=0;orthogonalLoop=1;jettySize=auto;html=1;fontSize=11;" edge="1" parent="1" source="Chhtmzpw9TE049w9HPY5-17" target="Chhtmzpw9TE049w9HPY5-19">
          <mxGeometry relative="1" as="geometry" />
        </mxCell>
        <mxCell id="Chhtmzpw9TE049w9HPY5-17" value="IProcessor" style="rounded=0;whiteSpace=wrap;html=1;fontSize=11;" vertex="1" parent="1">
          <mxGeometry x="300" y="355" width="80" height="40" as="geometry" />
        </mxCell>
        <mxCell id="Chhtmzpw9TE049w9HPY5-23" style="edgeStyle=orthogonalEdgeStyle;rounded=0;orthogonalLoop=1;jettySize=auto;html=1;entryX=0;entryY=0.5;entryDx=0;entryDy=0;fontSize=11;" edge="1" parent="1" source="Chhtmzpw9TE049w9HPY5-19" target="Chhtmzpw9TE049w9HPY5-20">
          <mxGeometry relative="1" as="geometry" />
        </mxCell>
        <mxCell id="Chhtmzpw9TE049w9HPY5-19" value="IProcessor" style="rounded=0;whiteSpace=wrap;html=1;fontSize=11;" vertex="1" parent="1">
          <mxGeometry x="400" y="355" width="80" height="40" as="geometry" />
        </mxCell>
        <mxCell id="Chhtmzpw9TE049w9HPY5-24" style="edgeStyle=orthogonalEdgeStyle;rounded=0;orthogonalLoop=1;jettySize=auto;html=1;entryX=0;entryY=0.5;entryDx=0;entryDy=0;dashed=1;fontSize=11;" edge="1" parent="1" source="Chhtmzpw9TE049w9HPY5-20" target="Chhtmzpw9TE049w9HPY5-21">
          <mxGeometry relative="1" as="geometry" />
        </mxCell>
        <mxCell id="Chhtmzpw9TE049w9HPY5-20" value="IProcessor" style="rounded=0;whiteSpace=wrap;html=1;fontSize=11;" vertex="1" parent="1">
          <mxGeometry x="500" y="355" width="80" height="40" as="geometry" />
        </mxCell>
        <mxCell id="Chhtmzpw9TE049w9HPY5-26" value="" style="edgeStyle=orthogonalEdgeStyle;rounded=0;orthogonalLoop=1;jettySize=auto;html=1;entryX=0;entryY=0.5;entryDx=0;entryDy=0;fontSize=11;" edge="1" parent="1" source="Chhtmzpw9TE049w9HPY5-21" target="Chhtmzpw9TE049w9HPY5-27">
          <mxGeometry relative="1" as="geometry">
            <mxPoint x="750" y="375" as="targetPoint" />
          </mxGeometry>
        </mxCell>
        <mxCell id="Chhtmzpw9TE049w9HPY5-21" value="IProcessor" style="rounded=0;whiteSpace=wrap;html=1;fontSize=11;" vertex="1" parent="1">
          <mxGeometry x="620" y="355" width="80" height="40" as="geometry" />
        </mxCell>
        <mxCell id="Chhtmzpw9TE049w9HPY5-27" value="IExporter" style="rounded=0;whiteSpace=wrap;html=1;fontSize=11;" vertex="1" parent="1">
          <mxGeometry x="730" y="355" width="80" height="40" as="geometry" />
        </mxCell>
        <mxCell id="Chhtmzpw9TE049w9HPY5-33" value="Hosted Service" style="rounded=0;whiteSpace=wrap;html=1;fillColor=#fff2cc;strokeColor=#d6b656;fontSize=11;" vertex="1" parent="1">
          <mxGeometry x="220" y="120" width="80" height="40" as="geometry" />
        </mxCell>
        <mxCell id="Chhtmzpw9TE049w9HPY5-75" style="edgeStyle=orthogonalEdgeStyle;rounded=0;orthogonalLoop=1;jettySize=auto;html=1;entryX=0;entryY=0.5;entryDx=0;entryDy=0;" edge="1" parent="1" source="Chhtmzpw9TE049w9HPY5-42" target="Chhtmzpw9TE049w9HPY5-68">
          <mxGeometry relative="1" as="geometry" />
        </mxCell>
        <mxCell id="Chhtmzpw9TE049w9HPY5-42" value="Process&lt;div style=&quot;font-size: 10px;&quot;&gt;Configurations&lt;div&gt;&lt;br&gt;&lt;/div&gt;&lt;/div&gt;" style="rounded=0;whiteSpace=wrap;html=1;fontSize=11;fillColor=#dae8fc;strokeColor=#6c8ebf;" vertex="1" parent="1">
          <mxGeometry x="40" y="40" width="70" height="40" as="geometry" />
        </mxCell>
        <mxCell id="Chhtmzpw9TE049w9HPY5-50" value="IImporter" style="rounded=0;whiteSpace=wrap;html=1;fontSize=11;" vertex="1" parent="1">
          <mxGeometry x="170" y="355" width="80" height="40" as="geometry" />
        </mxCell>
        <mxCell id="Chhtmzpw9TE049w9HPY5-53" value="GET" style="edgeStyle=orthogonalEdgeStyle;rounded=0;orthogonalLoop=1;jettySize=auto;html=1;" edge="1" parent="1" source="Chhtmzpw9TE049w9HPY5-51" target="Chhtmzpw9TE049w9HPY5-52">
          <mxGeometry relative="1" as="geometry" />
        </mxCell>
        <mxCell id="Chhtmzpw9TE049w9HPY5-55" value="GET" style="edgeStyle=orthogonalEdgeStyle;rounded=0;orthogonalLoop=1;jettySize=auto;html=1;exitX=1;exitY=0.75;exitDx=0;exitDy=0;entryX=0;entryY=0.5;entryDx=0;entryDy=0;" edge="1" parent="1" source="Chhtmzpw9TE049w9HPY5-51" target="Chhtmzpw9TE049w9HPY5-54">
          <mxGeometry relative="1" as="geometry" />
        </mxCell>
        <mxCell id="Chhtmzpw9TE049w9HPY5-51" value="REST API" style="rounded=0;whiteSpace=wrap;html=1;fontSize=11;" vertex="1" parent="1">
          <mxGeometry x="45" y="210" width="80" height="40" as="geometry" />
        </mxCell>
        <mxCell id="Chhtmzpw9TE049w9HPY5-52" value="Configuration Store" style="whiteSpace=wrap;html=1;fontSize=11;rounded=0;" vertex="1" parent="1">
          <mxGeometry x="195" y="190" width="70" height="40" as="geometry" />
        </mxCell>
        <mxCell id="Chhtmzpw9TE049w9HPY5-54" value="Configuration Store" style="whiteSpace=wrap;html=1;fontSize=11;rounded=0;" vertex="1" parent="1">
          <mxGeometry x="195" y="240" width="70" height="40" as="geometry" />
        </mxCell>
        <mxCell id="Chhtmzpw9TE049w9HPY5-56" value="Wep API" style="rounded=0;whiteSpace=wrap;html=1;fillColor=#ffe6cc;strokeColor=#d79b00;fontSize=11;" vertex="1" parent="1">
          <mxGeometry x="100" y="120" width="80" height="40" as="geometry" />
        </mxCell>
        <mxCell id="Chhtmzpw9TE049w9HPY5-63" value="" style="dashed=0;outlineConnect=0;html=1;align=center;labelPosition=center;verticalLabelPosition=bottom;verticalAlign=top;shape=mxgraph.weblogos.json_2" vertex="1" parent="1">
          <mxGeometry x="70" y="70" width="40.4" height="10" as="geometry" />
        </mxCell>
        <mxCell id="Chhtmzpw9TE049w9HPY5-77" style="edgeStyle=orthogonalEdgeStyle;rounded=0;orthogonalLoop=1;jettySize=auto;html=1;entryX=0.5;entryY=0;entryDx=0;entryDy=0;" edge="1" parent="1" source="Chhtmzpw9TE049w9HPY5-68" target="Chhtmzpw9TE049w9HPY5-56">
          <mxGeometry relative="1" as="geometry" />
        </mxCell>
        <mxCell id="Chhtmzpw9TE049w9HPY5-68" value="Console App" style="rounded=0;whiteSpace=wrap;html=1;fillColor=#e1d5e7;strokeColor=#9673a6;fontSize=11;" vertex="1" parent="1">
          <mxGeometry x="160" y="40" width="80" height="40" as="geometry" />
        </mxCell>
        <mxCell id="Chhtmzpw9TE049w9HPY5-76" style="edgeStyle=orthogonalEdgeStyle;rounded=0;orthogonalLoop=1;jettySize=auto;html=1;entryX=0.455;entryY=0;entryDx=0;entryDy=0;entryPerimeter=0;" edge="1" parent="1" source="Chhtmzpw9TE049w9HPY5-68" target="Chhtmzpw9TE049w9HPY5-33">
          <mxGeometry relative="1" as="geometry" />
        </mxCell>
        <mxCell id="Chhtmzpw9TE049w9HPY5-78" value="&lt;h1 style=&quot;margin-top: 0px; font-size: 8px;&quot;&gt;&lt;font style=&quot;font-size: 8px;&quot;&gt;Process Configurations&lt;/font&gt;&lt;/h1&gt;&lt;div style=&quot;font-size: 8px;&quot;&gt;&lt;font style=&quot;font-size: 8px;&quot;&gt;&quot;ProcessConfigurations&quot;:&lt;/font&gt;&lt;/div&gt;&lt;div style=&quot;font-size: 8px;&quot;&gt;&lt;font style=&quot;font-size: 8px;&quot;&gt;{&lt;/font&gt;&lt;/div&gt;&lt;div style=&quot;font-size: 8px;&quot;&gt;&lt;span style=&quot;background-color: initial; white-space: pre;&quot;&gt;&lt;font style=&quot;font-size: 8px;&quot;&gt;&lt;span style=&quot;white-space: pre;&quot;&gt;&#x9;&lt;/span&gt;&quot;Importer&quot;: {&lt;/font&gt;&lt;/span&gt;&lt;/div&gt;&lt;div style=&quot;font-size: 8px;&quot;&gt;&lt;span style=&quot;background-color: initial; white-space: pre;&quot;&gt;&lt;font style=&quot;font-size: 8px;&quot;&gt;&lt;font style=&quot;font-size: 8px;&quot;&gt;&lt;span style=&quot;white-space: pre;&quot;&gt;&#x9;&lt;/span&gt;&lt;span style=&quot;white-space: pre;&quot;&gt;&#x9;&lt;/span&gt;&quot;&lt;/font&gt;&lt;font style=&quot;font-size: 8px;&quot;&gt;ClassName&lt;/font&gt;&lt;font style=&quot;font-size: 8px;&quot;&gt;&quot;: &quot;ImporterX&quot;,&lt;br&gt;&lt;/font&gt;&lt;/font&gt;&lt;/span&gt;&lt;/div&gt;&lt;div style=&quot;font-size: 8px;&quot;&gt;&lt;font style=&quot;font-size: 8px;&quot;&gt;&lt;span style=&quot;background-color: initial; white-space: pre;&quot;&gt;&lt;span style=&quot;white-space: pre;&quot;&gt;&#x9;&lt;/span&gt;&lt;span style=&quot;white-space: pre;&quot;&gt;&#x9;&lt;/span&gt;&quot;&lt;/span&gt;&lt;span style=&quot;white-space: pre; background-color: initial;&quot;&gt;ImporterX_Configurations&quot;: {&lt;/span&gt;&lt;/font&gt;&lt;/div&gt;&lt;div style=&quot;font-size: 8px;&quot;&gt;&lt;span style=&quot;white-space: pre; background-color: initial;&quot;&gt;&lt;font style=&quot;font-size: 8px;&quot;&gt;&lt;span style=&quot;white-space: pre;&quot;&gt;&#x9;&lt;/span&gt;&lt;span style=&quot;white-space: pre;&quot;&gt;&#x9;&lt;/span&gt;&lt;span style=&quot;white-space: pre;&quot;&gt;&#x9;&lt;/span&gt;&quot;ParamX&quot;: &quot;ValueX&quot;,&lt;br&gt;&lt;/font&gt;&lt;/span&gt;&lt;/div&gt;&lt;div style=&quot;font-size: 8px;&quot;&gt;&lt;span style=&quot;white-space: pre; background-color: initial;&quot;&gt;&lt;font style=&quot;font-size: 8px;&quot;&gt;&lt;span style=&quot;white-space: pre;&quot;&gt;&#x9;&lt;/span&gt;&lt;span style=&quot;white-space: pre;&quot;&gt;&#x9;&lt;/span&gt;&lt;span style=&quot;white-space: pre;&quot;&gt;&#x9;&lt;/span&gt;....&lt;br&gt;&lt;/font&gt;&lt;/span&gt;&lt;/div&gt;&lt;div style=&quot;font-size: 8px;&quot;&gt;&lt;span style=&quot;white-space: pre; background-color: initial;&quot;&gt;&lt;font style=&quot;font-size: 8px;&quot;&gt;&lt;span style=&quot;white-space: pre;&quot;&gt;&#x9;&lt;/span&gt;&lt;span style=&quot;white-space: pre;&quot;&gt;&#x9;&lt;/span&gt;},&lt;/font&gt;&lt;/span&gt;&lt;/div&gt;&lt;div style=&quot;font-size: 8px;&quot;&gt;&lt;font style=&quot;font-size: 8px;&quot;&gt;&lt;span style=&quot;white-space: pre; background-color: initial;&quot;&gt;&lt;font style=&quot;font-size: 8px;&quot;&gt;&lt;span style=&quot;white-space: pre;&quot;&gt;&#x9;&lt;/span&gt;&lt;span style=&quot;white-space: pre;&quot;&gt;&#x9;&lt;/span&gt;&lt;/font&gt;&lt;/span&gt;&lt;span style=&quot;background-color: initial; white-space: pre;&quot;&gt;&quot;&lt;/span&gt;&lt;span style=&quot;background-color: initial; white-space: pre;&quot;&gt;DependecyX_Configurations&quot;: {&lt;/span&gt;&lt;/font&gt;&lt;/div&gt;&lt;div style=&quot;font-size: 8px;&quot;&gt;&lt;span style=&quot;white-space: pre; background-color: initial;&quot;&gt;&lt;font style=&quot;font-size: 8px;&quot;&gt;&#x9;&lt;span style=&quot;white-space: pre;&quot;&gt;&#x9;&lt;/span&gt;&lt;span style=&quot;white-space: pre;&quot;&gt;&#x9;&lt;/span&gt;&quot;ParamX&quot;: &quot;ValueX&quot;,&lt;br&gt;&lt;/font&gt;&lt;/span&gt;&lt;/div&gt;&lt;div style=&quot;font-size: 8px;&quot;&gt;&lt;span style=&quot;white-space: pre; background-color: initial;&quot;&gt;&lt;font style=&quot;font-size: 8px;&quot;&gt;&#x9;&lt;span style=&quot;white-space: pre;&quot;&gt;&#x9;&lt;/span&gt;&lt;span style=&quot;white-space: pre;&quot;&gt;&#x9;&lt;/span&gt;....&lt;br&gt;&lt;/font&gt;&lt;/span&gt;&lt;/div&gt;&lt;div style=&quot;font-size: 8px;&quot;&gt;&lt;span style=&quot;white-space: pre; background-color: initial;&quot;&gt;&lt;font style=&quot;font-size: 8px;&quot;&gt;&#x9;&lt;span style=&quot;white-space: pre;&quot;&gt;&#x9;&lt;/span&gt;}&lt;/font&gt;&lt;/span&gt;&lt;/div&gt;&lt;div style=&quot;font-size: 8px;&quot;&gt;&lt;span style=&quot;background-color: initial; white-space: pre;&quot;&gt;&lt;font style=&quot;font-size: 8px;&quot;&gt;&lt;span style=&quot;white-space: pre;&quot;&gt;&#x9;&lt;/span&gt;},&lt;/font&gt;&lt;/span&gt;&lt;/div&gt;&lt;div style=&quot;font-size: 8px;&quot;&gt;&lt;/div&gt;&lt;div style=&quot;font-size: 8px;&quot;&gt;&lt;span style=&quot;background-color: initial; white-space: pre;&quot;&gt;&lt;font style=&quot;font-size: 8px;&quot;&gt;&lt;span style=&quot;white-space: pre;&quot;&gt;&#x9;&lt;/span&gt;&quot;Processors&quot;: [&lt;/font&gt;&lt;/span&gt;&lt;/div&gt;&lt;div style=&quot;font-size: 8px;&quot;&gt;&lt;font style=&quot;font-size: 8px;&quot;&gt;&lt;span style=&quot;background-color: initial; white-space: pre;&quot;&gt;&lt;span style=&quot;white-space: pre;&quot;&gt;&#x9;&lt;/span&gt;&lt;span style=&quot;white-space: pre;&quot;&gt;&#x9;&lt;/span&gt;&lt;/span&gt;&lt;span style=&quot;background-color: initial; white-space: pre;&quot;&gt;{&lt;/span&gt;&lt;/font&gt;&lt;/div&gt;&lt;div style=&quot;font-size: 8px;&quot;&gt;&lt;font style=&quot;font-size: 8px;&quot;&gt;&lt;span style=&quot;background-color: initial; white-space: pre;&quot;&gt;&#x9;&lt;span style=&quot;white-space: pre;&quot;&gt;&#x9;&lt;span style=&quot;white-space: pre;&quot;&gt;&#x9;&lt;/span&gt;&lt;/span&gt;&quot;ClassName&quot;: &quot;&lt;/span&gt;Processor&lt;span style=&quot;background-color: initial; white-space: pre;&quot;&gt;X&quot;,&lt;br&gt;&lt;/span&gt;&lt;/font&gt;&lt;/div&gt;&lt;div style=&quot;font-size: 8px;&quot;&gt;&lt;font style=&quot;font-size: 8px;&quot;&gt;&lt;span style=&quot;background-color: initial; white-space: pre;&quot;&gt;&#x9;&lt;span style=&quot;white-space: pre;&quot;&gt;&#x9;&lt;span style=&quot;white-space: pre;&quot;&gt;&#x9;&lt;/span&gt;&lt;/span&gt;&quot;&lt;/span&gt;&lt;span style=&quot;white-space: pre; background-color: initial;&quot;&gt;ProcessorX_Configurations&quot;: {&lt;/span&gt;&lt;/font&gt;&lt;/div&gt;&lt;div style=&quot;font-size: 8px;&quot;&gt;&lt;span style=&quot;white-space: pre; background-color: initial;&quot;&gt;&lt;font style=&quot;font-size: 8px;&quot;&gt;&#x9;&lt;span style=&quot;white-space: pre;&quot;&gt;&#x9;&lt;/span&gt;&lt;span style=&quot;white-space: pre;&quot;&gt;&#x9;&lt;span style=&quot;white-space: pre;&quot;&gt;&#x9;&lt;/span&gt;&lt;/span&gt;&quot;ParamX&quot;: &quot;ValueX&quot;,&lt;br&gt;&lt;/font&gt;&lt;/span&gt;&lt;/div&gt;&lt;div style=&quot;font-size: 8px;&quot;&gt;&lt;span style=&quot;white-space: pre; background-color: initial;&quot;&gt;&lt;font style=&quot;font-size: 8px;&quot;&gt;&#x9;&lt;span style=&quot;white-space: pre;&quot;&gt;&#x9;&lt;/span&gt;&lt;span style=&quot;white-space: pre;&quot;&gt;&#x9;&lt;span style=&quot;white-space: pre;&quot;&gt;&#x9;&lt;/span&gt;&lt;/span&gt;....&lt;br&gt;&lt;/font&gt;&lt;/span&gt;&lt;/div&gt;&lt;div style=&quot;font-size: 8px;&quot;&gt;&lt;font style=&quot;font-size: 8px;&quot;&gt;&lt;span style=&quot;background-color: initial; white-space: pre;&quot;&gt;&#x9;&lt;span style=&quot;white-space: pre;&quot;&gt;&#x9;&lt;/span&gt;}&lt;/span&gt;&lt;span style=&quot;background-color: initial; white-space: pre;&quot;&gt;,&lt;/span&gt;&lt;/font&gt;&lt;/div&gt;&lt;div style=&quot;font-size: 8px;&quot;&gt;&lt;span style=&quot;background-color: initial; white-space: pre;&quot;&gt;&lt;font style=&quot;font-size: 8px;&quot;&gt;&lt;span style=&quot;white-space: pre;&quot;&gt;&#x9;&lt;/span&gt;...],&lt;/font&gt;&lt;/span&gt;&lt;/div&gt;&lt;div style=&quot;font-size: 8px;&quot;&gt;&lt;span style=&quot;background-color: initial; white-space: pre;&quot;&gt;&lt;font style=&quot;font-size: 8px;&quot;&gt;&lt;span style=&quot;white-space: pre;&quot;&gt;&#x9;&lt;/span&gt;&quot;Exporter&quot;: {&lt;/font&gt;&lt;/span&gt;&lt;/div&gt;&lt;div style=&quot;font-size: 8px;&quot;&gt;&lt;font style=&quot;font-size: 8px;&quot;&gt;&lt;span style=&quot;background-color: initial; white-space: pre;&quot;&gt;&lt;span style=&quot;white-space: pre;&quot;&gt;&#x9;&lt;span style=&quot;white-space: pre;&quot;&gt;&#x9;&lt;/span&gt;&lt;/span&gt;&lt;/span&gt;&lt;span style=&quot;background-color: initial; white-space: pre;&quot;&gt;&quot;ClassName&quot;: &quot;ExporteX&quot;,&lt;/span&gt;&lt;/font&gt;&lt;/div&gt;&lt;div style=&quot;font-size: 8px;&quot;&gt;&lt;font style=&quot;font-size: 8px;&quot;&gt;&lt;span style=&quot;background-color: initial; white-space: pre;&quot;&gt;&#x9;&lt;span style=&quot;white-space: pre;&quot;&gt;&#x9;&lt;/span&gt;&quot;&lt;/span&gt;&lt;span style=&quot;white-space: pre; background-color: initial;&quot;&gt;ExporteX_Configurations&quot;: {&lt;/span&gt;&lt;/font&gt;&lt;/div&gt;&lt;div style=&quot;font-size: 8px;&quot;&gt;&lt;span style=&quot;white-space: pre; background-color: initial;&quot;&gt;&lt;font style=&quot;font-size: 8px;&quot;&gt;&#x9;&lt;span style=&quot;white-space: pre;&quot;&gt;&#x9;&lt;/span&gt;&lt;span style=&quot;white-space: pre;&quot;&gt;&#x9;&lt;/span&gt;&quot;ParamX&quot;: &quot;ValueX&quot;,&lt;br&gt;&lt;/font&gt;&lt;/span&gt;&lt;/div&gt;&lt;div style=&quot;font-size: 8px;&quot;&gt;&lt;span style=&quot;white-space: pre; background-color: initial;&quot;&gt;&lt;font style=&quot;font-size: 8px;&quot;&gt;&#x9;&lt;span style=&quot;white-space: pre;&quot;&gt;&#x9;&lt;/span&gt;&lt;span style=&quot;white-space: pre;&quot;&gt;&#x9;&lt;/span&gt;....&lt;br&gt;&lt;/font&gt;&lt;/span&gt;&lt;/div&gt;&lt;div style=&quot;font-size: 8px;&quot;&gt;&lt;span style=&quot;white-space: pre; background-color: initial;&quot;&gt;&lt;font style=&quot;font-size: 8px;&quot;&gt;&#x9;&lt;span style=&quot;white-space: pre;&quot;&gt;&#x9;&lt;/span&gt;}&lt;/font&gt;&lt;/span&gt;&lt;/div&gt;&lt;div style=&quot;font-size: 8px;&quot;&gt;&lt;font style=&quot;font-size: 8px;&quot;&gt;&lt;br&gt;&lt;/font&gt;&lt;/div&gt;&lt;div style=&quot;font-size: 8px;&quot;&gt;&lt;span style=&quot;background-color: initial; white-space: pre;&quot;&gt;&lt;font style=&quot;font-size: 8px;&quot;&gt;&lt;span style=&quot;white-space: pre;&quot;&gt;&#x9;&lt;/span&gt;},&lt;/font&gt;&lt;/span&gt;&lt;/div&gt;&lt;div style=&quot;font-size: 8px;&quot;&gt;&lt;/div&gt;&lt;div style=&quot;font-size: 8px;&quot;&gt;&lt;span style=&quot;background-color: initial; white-space: pre;&quot;&gt;&lt;font style=&quot;font-size: 8px;&quot;&gt;&lt;span style=&quot;white-space: pre;&quot;&gt;&#x9;&lt;/span&gt;&quot;Dependecies&quot;:[&lt;/font&gt;&lt;/span&gt;&lt;/div&gt;&lt;div style=&quot;font-size: 8px;&quot;&gt;&lt;font style=&quot;font-size: 8px;&quot;&gt;&lt;span style=&quot;background-color: initial; white-space: pre;&quot;&gt;&lt;span style=&quot;white-space: pre;&quot;&gt;&#x9;&lt;/span&gt;&lt;span style=&quot;white-space: pre;&quot;&gt;&#x9;&lt;/span&gt;&quot;IDependecyX&quot;: [&quot;&lt;/span&gt;&lt;span style=&quot;white-space: pre; background-color: initial;&quot;&gt;IDependecyX_ImplA&quot;, &quot;&lt;/span&gt;&lt;span style=&quot;white-space: pre; background-color: initial;&quot;&gt;IDependecyX_ImplB&lt;/span&gt;&lt;span style=&quot;background-color: initial; white-space: pre;&quot;&gt;&quot;, ...]&lt;/span&gt;&lt;span style=&quot;background-color: initial; white-space: pre;&quot;&gt;,&lt;/span&gt;&lt;/font&gt;&lt;/div&gt;&lt;div style=&quot;font-size: 8px;&quot;&gt;&lt;font style=&quot;font-size: 8px;&quot;&gt;&lt;span style=&quot;white-space: pre;&quot;&gt;&#x9;&lt;/span&gt;&lt;span style=&quot;white-space: pre;&quot;&gt;&#x9;&lt;/span&gt;&lt;span style=&quot;background-color: initial; white-space: pre;&quot;&gt;&quot;IDependecyY&quot;: [&quot;&lt;/span&gt;&lt;span style=&quot;background-color: initial; white-space: pre;&quot;&gt;IDependecyY_ImplA&quot;, &quot;&lt;/span&gt;&lt;span style=&quot;background-color: initial; white-space: pre;&quot;&gt;IDependecyX_ImplB&lt;/span&gt;&lt;span style=&quot;background-color: initial; white-space: pre;&quot;&gt;&quot;, ...],&lt;/span&gt;&lt;br&gt;&lt;/font&gt;&lt;/div&gt;&lt;div style=&quot;font-size: 8px;&quot;&gt;&lt;span style=&quot;background-color: initial; white-space: pre;&quot;&gt;&lt;font style=&quot;font-size: 8px;&quot;&gt;&lt;span style=&quot;white-space: pre;&quot;&gt;&#x9;&lt;/span&gt;&lt;span style=&quot;white-space: pre;&quot;&gt;&#x9;&lt;/span&gt;...&lt;br&gt;&lt;/font&gt;&lt;/span&gt;&lt;/div&gt;&lt;div style=&quot;font-size: 8px;&quot;&gt;&lt;font style=&quot;font-size: 8px;&quot;&gt;&lt;span style=&quot;background-color: initial; white-space: pre;&quot;&gt;&#x9;&lt;/span&gt;&lt;span style=&quot;background-color: initial; white-space: pre;&quot;&gt;]&lt;/span&gt;&lt;/font&gt;&lt;/div&gt;&lt;div style=&quot;font-size: 8px;&quot;&gt;&lt;font style=&quot;font-size: 8px;&quot;&gt;}&lt;/font&gt;&lt;/div&gt;" style="text;html=1;whiteSpace=wrap;overflow=hidden;rounded=0;fontSize=9;fillColor=#dae8fc;strokeColor=#6c8ebf;" vertex="1" parent="1">
          <mxGeometry x="40" y="420" width="360" height="360" as="geometry" />
        </mxCell>
        <mxCell id="Chhtmzpw9TE049w9HPY5-79" value="" style="dashed=0;outlineConnect=0;html=1;align=center;labelPosition=center;verticalLabelPosition=bottom;verticalAlign=top;shape=mxgraph.weblogos.json_2" vertex="1" parent="1">
          <mxGeometry x="349.6" y="770" width="40.4" height="10" as="geometry" />
        </mxCell>
        <mxCell id="ISKiT_FvezGjVcCyQegi-1" value="&lt;font style=&quot;font-size: 11px;&quot;&gt;Generice&lt;/font&gt;&lt;span style=&quot;font-size: 11px; background-color: initial;&quot;&gt;Gatewae.exe&lt;/span&gt;" style="rounded=0;whiteSpace=wrap;html=1;fillColor=#b1ddf0;strokeColor=#10739e;" vertex="1" parent="1">
          <mxGeometry x="870" y="130" width="140" height="40" as="geometry" />
        </mxCell>
        <mxCell id="ISKiT_FvezGjVcCyQegi-2" style="edgeStyle=orthogonalEdgeStyle;rounded=0;orthogonalLoop=1;jettySize=auto;html=1;entryX=0.5;entryY=0;entryDx=0;entryDy=0;" edge="1" parent="1" source="ISKiT_FvezGjVcCyQegi-4" target="ISKiT_FvezGjVcCyQegi-1">
          <mxGeometry relative="1" as="geometry">
            <Array as="points">
              <mxPoint x="1030" y="100" />
              <mxPoint x="940" y="100" />
            </Array>
          </mxGeometry>
        </mxCell>
        <mxCell id="ISKiT_FvezGjVcCyQegi-3" style="edgeStyle=orthogonalEdgeStyle;rounded=0;orthogonalLoop=1;jettySize=auto;html=1;entryX=0.5;entryY=0;entryDx=0;entryDy=0;" edge="1" parent="1" source="ISKiT_FvezGjVcCyQegi-4" target="ISKiT_FvezGjVcCyQegi-10">
          <mxGeometry relative="1" as="geometry">
            <Array as="points">
              <mxPoint x="1030" y="100" />
              <mxPoint x="1100" y="100" />
            </Array>
          </mxGeometry>
        </mxCell>
        <mxCell id="ISKiT_FvezGjVcCyQegi-4" value="Loader.dll" style="rounded=0;whiteSpace=wrap;html=1;fillColor=#b0e3e6;strokeColor=#0e8088;" vertex="1" parent="1">
          <mxGeometry x="960" y="40" width="140" height="40" as="geometry" />
        </mxCell>
        <mxCell id="ISKiT_FvezGjVcCyQegi-5" style="edgeStyle=orthogonalEdgeStyle;rounded=0;orthogonalLoop=1;jettySize=auto;html=1;" edge="1" parent="1" source="ISKiT_FvezGjVcCyQegi-7">
          <mxGeometry relative="1" as="geometry">
            <mxPoint x="940" y="170" as="targetPoint" />
          </mxGeometry>
        </mxCell>
        <mxCell id="ISKiT_FvezGjVcCyQegi-6" style="rounded=0;orthogonalLoop=1;jettySize=auto;html=1;entryX=0.5;entryY=1;entryDx=0;entryDy=0;" edge="1" parent="1" source="ISKiT_FvezGjVcCyQegi-7" target="ISKiT_FvezGjVcCyQegi-10">
          <mxGeometry relative="1" as="geometry" />
        </mxCell>
        <mxCell id="ISKiT_FvezGjVcCyQegi-7" value="GenericGateway.Core&lt;span style=&quot;background-color: initial;&quot;&gt;.dll&lt;/span&gt;" style="rounded=0;whiteSpace=wrap;html=1;fillColor=#b1ddf0;strokeColor=#10739e;" vertex="1" parent="1">
          <mxGeometry x="1030" y="250" width="140" height="40" as="geometry" />
        </mxCell>
        <mxCell id="ISKiT_FvezGjVcCyQegi-8" style="edgeStyle=orthogonalEdgeStyle;rounded=0;orthogonalLoop=1;jettySize=auto;html=1;entryX=0.5;entryY=1;entryDx=0;entryDy=0;" edge="1" parent="1" source="ISKiT_FvezGjVcCyQegi-10" target="ISKiT_FvezGjVcCyQegi-1">
          <mxGeometry relative="1" as="geometry" />
        </mxCell>
        <mxCell id="ISKiT_FvezGjVcCyQegi-9" style="edgeStyle=orthogonalEdgeStyle;rounded=0;orthogonalLoop=1;jettySize=auto;html=1;exitX=0.5;exitY=1;exitDx=0;exitDy=0;" edge="1" parent="1" source="ISKiT_FvezGjVcCyQegi-10">
          <mxGeometry relative="1" as="geometry">
            <mxPoint x="1100.111111111111" y="209.94444444444434" as="targetPoint" />
          </mxGeometry>
        </mxCell>
        <mxCell id="ISKiT_FvezGjVcCyQegi-10" value="GenericGateway.&lt;div&gt;Infrastructure.dll&lt;/div&gt;" style="rounded=0;whiteSpace=wrap;html=1;fillColor=#b1ddf0;strokeColor=#10739e;" vertex="1" parent="1">
          <mxGeometry x="1030" y="180" width="140" height="40" as="geometry" />
        </mxCell>
      </root>
    </mxGraphModel>
  </diagram>
  <diagram id="gCYaJxBM0XddEe0-d3UZ" name="Components">
    <mxGraphModel dx="1407" dy="570" grid="1" gridSize="10" guides="1" tooltips="1" connect="1" arrows="1" fold="1" page="1" pageScale="1" pageWidth="827" pageHeight="1169" math="0" shadow="0">
      <root>
        <mxCell id="0" />
        <mxCell id="1" parent="0" />
        <mxCell id="-q12-MP6YUGq6QgXpVW5-1" value="&lt;font style=&quot;font-size: 11px;&quot;&gt;Generice&lt;/font&gt;&lt;span style=&quot;font-size: 11px; background-color: initial;&quot;&gt;Gatewae.exe&lt;/span&gt;" style="rounded=0;whiteSpace=wrap;html=1;" vertex="1" parent="1">
          <mxGeometry x="40" y="110" width="140" height="40" as="geometry" />
        </mxCell>
        <mxCell id="-q12-MP6YUGq6QgXpVW5-11" style="edgeStyle=orthogonalEdgeStyle;rounded=0;orthogonalLoop=1;jettySize=auto;html=1;entryX=0.5;entryY=0;entryDx=0;entryDy=0;" edge="1" parent="1" source="-q12-MP6YUGq6QgXpVW5-2" target="-q12-MP6YUGq6QgXpVW5-1">
          <mxGeometry relative="1" as="geometry">
            <Array as="points">
              <mxPoint x="200" y="80" />
              <mxPoint x="110" y="80" />
            </Array>
          </mxGeometry>
        </mxCell>
        <mxCell id="-q12-MP6YUGq6QgXpVW5-12" style="edgeStyle=orthogonalEdgeStyle;rounded=0;orthogonalLoop=1;jettySize=auto;html=1;entryX=0.5;entryY=0;entryDx=0;entryDy=0;" edge="1" parent="1" source="-q12-MP6YUGq6QgXpVW5-2" target="-q12-MP6YUGq6QgXpVW5-4">
          <mxGeometry relative="1" as="geometry">
            <Array as="points">
              <mxPoint x="200" y="80" />
              <mxPoint x="270" y="80" />
            </Array>
          </mxGeometry>
        </mxCell>
        <mxCell id="-q12-MP6YUGq6QgXpVW5-2" value="ComponentsLoader.dll" style="rounded=0;whiteSpace=wrap;html=1;" vertex="1" parent="1">
          <mxGeometry x="130" y="20" width="140" height="40" as="geometry" />
        </mxCell>
        <mxCell id="-q12-MP6YUGq6QgXpVW5-9" style="edgeStyle=orthogonalEdgeStyle;rounded=0;orthogonalLoop=1;jettySize=auto;html=1;" edge="1" parent="1" source="-q12-MP6YUGq6QgXpVW5-3">
          <mxGeometry relative="1" as="geometry">
            <mxPoint x="110" y="150" as="targetPoint" />
          </mxGeometry>
        </mxCell>
        <mxCell id="-q12-MP6YUGq6QgXpVW5-10" style="rounded=0;orthogonalLoop=1;jettySize=auto;html=1;entryX=0.5;entryY=1;entryDx=0;entryDy=0;" edge="1" parent="1" source="-q12-MP6YUGq6QgXpVW5-3" target="-q12-MP6YUGq6QgXpVW5-4">
          <mxGeometry relative="1" as="geometry" />
        </mxCell>
        <mxCell id="-q12-MP6YUGq6QgXpVW5-3" value="GenericGateway.Core&lt;span style=&quot;background-color: initial;&quot;&gt;.dll&lt;/span&gt;" style="rounded=0;whiteSpace=wrap;html=1;" vertex="1" parent="1">
          <mxGeometry x="200" y="220" width="140" height="40" as="geometry" />
        </mxCell>
        <mxCell id="-q12-MP6YUGq6QgXpVW5-6" style="edgeStyle=orthogonalEdgeStyle;rounded=0;orthogonalLoop=1;jettySize=auto;html=1;entryX=0.5;entryY=1;entryDx=0;entryDy=0;" edge="1" parent="1" source="-q12-MP6YUGq6QgXpVW5-4" target="-q12-MP6YUGq6QgXpVW5-1">
          <mxGeometry relative="1" as="geometry" />
        </mxCell>
        <mxCell id="-q12-MP6YUGq6QgXpVW5-7" style="edgeStyle=orthogonalEdgeStyle;rounded=0;orthogonalLoop=1;jettySize=auto;html=1;exitX=0.5;exitY=1;exitDx=0;exitDy=0;" edge="1" parent="1" source="-q12-MP6YUGq6QgXpVW5-4">
          <mxGeometry relative="1" as="geometry">
            <mxPoint x="270.1111111111111" y="189.94444444444446" as="targetPoint" />
          </mxGeometry>
        </mxCell>
        <mxCell id="-q12-MP6YUGq6QgXpVW5-4" value="GenericGateway.&lt;div&gt;Infrastructure.dll&lt;/div&gt;" style="rounded=0;whiteSpace=wrap;html=1;" vertex="1" parent="1">
          <mxGeometry x="200" y="150" width="140" height="40" as="geometry" />
        </mxCell>
      </root>
    </mxGraphModel>
  </diagram>
</mxfile>
